<!-- CampusTrace Header Logo (Flat Professional, No Background) -->
<svg width="2400" height="1600" viewBox="0 0 2400 1600" xmlns="http://www.w3.org/2000/svg">
  <defs>
    <!-- Professional gradient palette -->
    <linearGradient id="primaryGrad" x1="0%" y1="0%" x2="100%" y2="100%">
      <stop offset="0%" style="stop-color:#5F3DD9"/>
      <stop offset="100%" style="stop-color:#4529B8"/>
    </linearGradient>
    <linearGradient id="secondaryGrad" x1="0%" y1="0%" x2="100%" y2="100%">
      <stop offset="0%" style="stop-color:#7B5DEB"/>
      <stop offset="100%" style="stop-color:#5F3DD9"/>
    </linearGradient>
  </defs>
  
  <g transform="translate(1200, 800) scale(3.1)">
    <!-- Outer hexagon -->
    <path d="M -120 -208 L 120 -208 L 240 0 L 120 208 L -120 208 L -240 0 Z" 
          fill="none" 
          stroke="url(#primaryGrad)" 
          stroke-width="54"
          stroke-linejoin="round"
          stroke-linecap="round"/>
    
    <!-- Inner fill -->
    <path d="M -65 -112 L 65 -112 L 130 0 L 65 112 L -65 112 L -130 0 Z" 
          fill="url(#secondaryGrad)" 
          opacity="0.22"/>
    
    <!-- Connection lines -->
    <g stroke="url(#primaryGrad)" stroke-width="36" opacity="0.35" stroke-linecap="round">
      <line x1="0" y1="0" x2="120" y2="-208"/>
      <line x1="0" y1="0" x2="240" y2="0"/>
      <line x1="0" y1="0" x2="120" y2="208"/>
      <line x1="0" y1="0" x2="-120" y2="208"/>
      <line x1="0" y1="0" x2="-240" y2="0"/>
      <line x1="0" y1="0" x2="-120" y2="-208"/>
    </g>
    
    <!-- Main nodes -->
    <circle cx="120" cy="-208" r="70" fill="url(#primaryGrad)"/>
    <circle cx="-120" cy="208" r="70" fill="url(#primaryGrad)"/>
    <circle cx="240" cy="0" r="70" fill="url(#secondaryGrad)"/>
    
    <!-- Secondary nodes -->
    <circle cx="-120" cy="-208" r="44" fill="url(#secondaryGrad)" opacity="0.6"/>
    <circle cx="120" cy="208" r="44" fill="url(#secondaryGrad)" opacity="0.6"/>
    <circle cx="-240" cy="0" r="44" fill="url(#primaryGrad)" opacity="0.6"/>
    
    <!-- Center hub -->
    <circle cx="0" cy="0" r="126" fill="white"/>
    <circle cx="0" cy="0" r="80" fill="url(#primaryGrad)"/>
    <circle cx="0" cy="0" r="36" fill="white" opacity="0.25"/>
  </g>
</svg>
