<?xml version="1.0" encoding="UTF-8"?>
<svg xmlns="http://www.w3.org/2000/svg" 
     width="512" 
     height="512" 
     viewBox="0 0 512 512">
  
  <style>
    .c-bold {
      fill: currentColor;
      color: #5025d1;
    }
    
    @media (prefers-color-scheme: dark) {
      .c-bold {
        color: #7c3aed;
      }
    }
  </style>
  
  <defs>
    <!-- Premium gradient -->
    <linearGradient id="chunky-gradient" x1="0%" y1="0%" x2="100%" y2="100%">
      <stop offset="0%" stop-color="#6366f1"/>
      <stop offset="50%" stop-color="#5025d1"/>
      <stop offset="100%" stop-color="#673de6"/>
    </linearGradient>
    
    <!-- Inner shadow for 3D effect -->
    <filter id="inset-shadow">
      <feOffset dx="0" dy="2"/>
      <feGaussianBlur stdDeviation="4"/>
      <feComposite operator="out" in="SourceGraphic"/>
      <feColorMatrix values="0 0 0 0 0 0 0 0 0 0 0 0 0 0 0 0 0 0 0.3 0"/>
      <feBlend mode="normal" in2="SourceGraphic"/>
    </filter>
  </defs>
  
  <!-- Ultra chunky C with rounded corners -->
  <path d="M 200 96
           C 140 96 96 140 96 200
           L 96 312
           C 96 372 140 416 200 416
           L 312 416
           C 352 416 384 384 384 344
           C 384 304 352 272 312 272
           L 240 272
           L 240 240
           L 312 240
           C 352 240 384 208 384 168
           C 384 128 352 96 312 96
           L 200 96
           Z
           
           M 200 156
           L 312 156
           C 322 156 324 164 324 168
           C 324 172 322 180 312 180
           L 180 180
           L 180 332
           L 312 332
           C 322 332 324 340 324 344
           C 324 348 322 356 312 356
           L 200 356
           C 180 356 156 340 156 312
           L 156 200
           C 156 172 180 156 200 156
           Z"
        fill="url(#chunky-gradient)"
        filter="url(#inset-shadow)"/>
</svg>